<svg version="1.1" id="Layer_1" xmlns="http://www.w3.org/2000/svg" xmlns:xlink="http://www.w3.org/1999/xlink" x="0px" y="0px"
	 width="100%" viewBox="0 0 783 360" enable-background="new 0 0 783 360" xml:space="preserve">
<path fill="#000000" opacity="1.000000" stroke="none" 
	d="
M545.000000,361.000000 
	C363.333344,361.000000 182.166672,361.000000 1.000000,361.000000 
	C1.000000,241.000000 1.000000,121.000000 1.000000,1.000000 
	C262.000000,1.000000 523.000000,1.000000 784.000000,1.000000 
	C784.000000,121.000000 784.000000,241.000000 784.000000,361.000000 
	C704.500000,361.000000 625.000000,361.000000 545.000000,361.000000 
M54.000000,191.500000 
	C54.000000,202.829422 54.220417,214.165329 53.886345,225.484894 
	C53.761070,229.729660 55.609364,231.385956 58.853226,233.687973 
	C64.205963,237.486572 68.403618,236.958725 72.971123,233.028458 
	C73.627258,232.463867 74.660484,232.337524 75.726120,231.929062 
	C76.866196,237.084625 74.296890,242.406860 81.149452,246.365646 
	C87.343895,249.944260 91.017441,246.099075 95.763954,244.817307 
	C96.364441,255.679092 96.393600,255.623276 104.158684,259.680328 
	C107.540642,261.447327 110.444550,261.376343 113.617043,258.984222 
	C116.808640,256.577728 120.379585,254.660400 123.846901,252.635971 
	C138.156906,244.280975 152.482605,235.952759 166.822433,227.649048 
	C169.717514,225.972610 172.720963,224.484390 175.636383,222.841827 
	C182.019577,219.245483 188.378342,215.605820 194.881622,211.907333 
	C194.881622,207.583023 194.881622,202.937134 194.881622,198.607483 
	C191.703629,196.696259 188.752396,194.921417 185.096970,192.723068 
	C188.865860,190.693710 191.918640,189.049927 194.876007,187.457520 
	C194.876007,182.612488 194.876007,177.962936 194.876007,173.741867 
	C191.477081,171.893417 188.353256,170.194580 184.641693,168.176102 
	C188.393173,166.373001 191.653397,164.806015 194.861572,163.264038 
	C194.861572,158.233856 194.861572,153.254242 194.861572,148.511963 
	C193.166428,147.841171 191.565994,147.434311 190.200378,146.629181 
	C183.421494,142.632584 176.759094,138.436996 169.954559,134.485580 
	C155.089371,125.853271 140.147568,117.352974 125.267502,108.746132 
	C116.397484,103.615578 107.818321,96.646950 97.166840,105.006264 
	C96.830536,105.270195 96.403702,105.418770 95.905594,105.680817 
	C95.905594,109.097015 95.905594,112.409225 95.905594,116.884521 
	C91.220055,113.136856 87.360519,109.357315 81.408989,113.896782 
	C76.059273,117.977234 75.136894,122.879944 76.100220,128.737473 
	C75.275566,128.803452 74.919716,128.932236 74.646339,128.833252 
	C74.050774,128.617569 73.366524,128.413254 72.946388,127.982201 
	C67.799934,122.702049 62.666759,124.805748 57.642342,128.074509 
	C55.223400,129.648224 53.869362,131.695480 53.904964,135.019928 
	C54.102974,153.511505 54.000000,172.006302 54.000000,191.500000 
M691.000000,212.482895 
	C691.000000,202.986877 690.929871,193.489990 691.048950,183.995468 
	C691.079041,181.598129 691.384033,179.099228 692.133911,176.836304 
	C694.100098,170.903091 701.273254,167.772629 709.420227,169.005783 
	C714.220947,169.732437 717.965454,174.959015 717.995056,181.032928 
	C718.019409,186.030746 718.000000,191.028793 718.000000,196.026733 
	C718.000000,205.287888 718.000000,214.549042 718.000000,223.703751 
	C722.999268,223.703751 727.404480,223.703751 732.000000,223.703751 
	C732.000000,208.600662 732.101746,193.791656 731.909851,178.986465 
	C731.873596,176.191452 730.952881,173.305084 729.953613,170.643631 
	C726.125610,160.448334 718.413269,156.059418 707.750061,155.960663 
	C699.142761,155.880966 691.952881,158.891556 686.187195,165.201752 
	C673.519348,152.052582 659.058167,155.251434 650.334717,160.621460 
	C645.321960,155.575302 639.453430,159.175339 634.289246,157.886292 
	C634.289246,180.324371 634.289246,202.057617 634.289246,223.708298 
	C639.321533,223.708298 644.059692,223.708298 649.000000,223.708298 
	C649.000000,209.944000 649.022095,196.470291 648.988953,182.996735 
	C648.976013,177.743240 651.063843,173.614059 655.597473,170.999542 
	C660.198914,168.345947 665.292236,167.798447 670.045776,170.122772 
	C674.750427,172.423126 676.281677,176.837509 676.044739,182.028870 
	C675.832214,186.683914 676.000000,191.356339 676.000000,196.021088 
	C676.000000,205.282333 676.000000,214.543564 676.000000,223.705688 
	C681.328552,223.705688 686.066772,223.705688 691.000000,223.705688 
	C691.000000,220.101013 691.000000,216.788956 691.000000,212.482895 
M596.380371,236.000000 
	C589.874512,236.618469 584.439880,235.120377 581.135498,228.791153 
	C580.660645,227.881683 579.043335,227.148926 577.909790,227.080643 
	C574.312683,226.863968 570.694275,227.000549 566.443054,227.000549 
	C567.165283,229.661636 567.437805,231.785629 568.297119,233.637283 
	C571.972595,241.557526 578.120850,246.213333 586.875061,247.454147 
	C597.846802,249.009323 608.281494,248.383163 617.409546,241.090179 
	C624.016968,235.811111 625.639099,228.294540 625.876465,220.648804 
	C626.310547,206.665909 626.000000,192.659912 626.000000,178.663544 
	C626.000000,171.883392 626.000000,165.103226 626.000000,158.167542 
	C621.102356,158.167542 616.662048,158.167542 612.227661,158.167542 
	C612.038635,159.541946 611.872498,160.749512 611.624268,162.554504 
	C603.572937,156.383545 595.238647,155.071396 585.953735,156.893661 
	C576.158813,158.816010 570.333557,165.810654 565.874023,173.260635 
	C561.347412,180.822662 560.245544,189.976837 563.134094,198.771332 
	C564.748291,203.685883 566.557922,208.890015 569.662781,212.889832 
	C576.792786,222.074966 593.002808,229.885956 611.593018,218.121918 
	C608.702820,235.692719 606.570496,234.552460 596.380371,236.000000 
M462.024658,167.719666 
	C459.928558,173.364563 456.929260,178.853989 455.925262,184.686874 
	C453.867493,196.642029 455.186493,208.104553 464.681702,217.213654 
	C475.342285,227.440781 489.002441,229.196182 501.706848,221.972824 
	C502.423950,221.565109 503.922638,222.399612 504.999878,222.808090 
	C505.632812,223.048096 506.144226,223.927399 506.723175,223.940308 
	C511.134888,224.038620 515.549744,223.994186 519.647034,223.994186 
	C519.647034,194.205536 519.647034,165.142090 519.647034,136.355545 
	C514.546448,136.355545 509.803345,136.355545 504.713287,136.355545 
	C504.713287,145.090240 504.713287,153.470764 504.713287,160.860504 
	C498.655945,159.218353 492.799927,156.757568 486.766571,156.193314 
	C476.932526,155.273621 468.713287,159.400986 462.024658,167.719666 
M267.140015,136.000061 
	C252.863846,136.000061 238.587677,136.000061 224.239838,136.000061 
	C224.239838,165.548279 224.239838,194.619232 224.239838,223.756485 
	C228.888977,223.756485 233.294571,223.756485 238.094421,223.756485 
	C238.094421,212.442322 238.094421,201.365479 238.094421,190.000000 
	C247.958725,190.000000 257.437836,190.292023 266.888428,189.898987 
	C273.364349,189.629669 279.452087,188.080734 283.623840,182.031311 
	C286.643311,177.652786 290.808533,174.040604 290.768707,168.121033 
	C290.738281,163.596100 292.221375,158.459915 290.571777,154.664612 
	C286.361298,144.977509 279.373627,137.610809 267.140015,136.000061 
M303.627777,224.120041 
	C314.869507,227.849197 325.531128,226.939789 335.427185,219.293930 
	C335.893372,221.414062 336.180786,222.721191 336.410248,223.764679 
	C341.138824,223.764679 345.415314,223.764679 349.999054,223.764679 
	C349.999054,208.070251 350.551941,192.578033 349.680573,177.166351 
	C349.399170,172.188843 346.574951,166.023178 342.839325,162.822113 
	C331.537354,153.137466 312.902039,153.828537 301.476105,161.542145 
	C296.888153,164.639420 293.150604,170.111694 292.920593,176.862305 
	C294.096710,176.927216 294.749237,176.992828 295.401886,176.994415 
	C299.394226,177.004105 303.386566,176.999268 307.332581,176.999268 
	C309.491913,169.576630 313.514832,167.894821 323.500763,168.069534 
	C330.780121,168.196899 333.753326,171.600937 335.582886,180.403870 
	C325.742249,181.600174 315.819550,182.473236 306.020935,184.095642 
	C297.050323,185.580963 290.457611,194.653641 289.880310,203.550842 
	C289.213806,213.823349 294.740875,219.573883 303.627777,224.120041 
M395.788452,176.999878 
	C399.773132,176.999878 403.757812,176.999878 407.663361,176.999878 
	C409.483795,170.412872 416.453033,166.521591 424.458832,168.088135 
	C433.114502,169.781830 435.387238,172.138657 435.674805,180.592377 
	C428.034027,181.395325 420.415100,182.582062 412.760132,182.899246 
	C403.881561,183.267136 394.997406,187.420441 391.641205,199.749664 
	C388.860718,209.963928 393.817780,220.926025 403.032288,223.948364 
	C412.945953,227.200043 422.693573,227.491974 432.013184,221.679413 
	C432.818695,221.177002 434.680725,222.244537 435.994781,222.735840 
	C436.614929,222.967712 437.090240,223.920395 437.647156,223.934875 
	C441.727478,224.041046 445.811859,223.992142 450.000000,223.992142 
	C450.000000,207.675995 450.137604,192.025116 449.875793,176.380920 
	C449.827484,173.494736 448.548248,170.434540 447.173035,167.801544 
	C442.992371,159.797104 435.245789,157.107300 427.110443,156.187393 
	C418.981903,155.268250 410.830383,156.413986 403.412384,160.272141 
	C397.715057,163.235352 396.351013,169.607590 393.121674,174.496323 
	C392.915131,174.808975 394.251160,176.140625 395.788452,176.999878 
M525.056519,170.257431 
	C529.599731,170.640625 534.142944,171.023804 537.989624,171.348251 
	C537.989624,184.889267 537.989624,198.418457 537.989624,212.319778 
	C533.209534,212.319778 529.130615,212.319778 525.363525,212.319778 
	C525.363525,216.460770 525.363525,220.201553 525.363525,223.637100 
	C538.801758,223.637100 551.875183,223.637100 564.929321,223.637100 
	C565.159546,212.074936 565.159546,212.074722 554.227173,211.998611 
	C553.610046,211.994308 552.992981,211.998047 551.978394,211.998047 
	C551.978394,193.852264 551.978394,176.109482 551.978394,158.213547 
	C542.839600,158.213547 534.100769,158.213547 525.003967,158.213547 
	C525.003967,162.043625 525.003967,165.670914 525.056519,170.257431 
M371.943237,223.263565 
	C371.962158,210.455780 371.915253,197.647446 372.025299,184.840439 
	C372.088898,177.437607 375.793335,169.553162 385.835236,170.954254 
	C388.069885,171.266052 390.385162,171.000000 392.783813,171.000000 
	C392.783813,166.153427 392.783813,161.752533 392.783813,155.958557 
	C385.638763,157.333527 378.960114,158.618729 373.046021,159.756821 
	C368.361847,156.328064 363.094269,158.827011 358.209442,157.883453 
	C358.209442,180.210098 358.209442,201.919205 358.209442,223.942490 
	C362.693359,223.942490 366.976837,223.942490 371.943237,223.263565 
M538.000000,141.566391 
	C538.000000,144.664078 538.000000,147.761749 538.000000,150.685867 
	C543.035522,150.685867 547.441101,150.685867 551.683289,150.685867 
	C551.683289,145.624649 551.683289,140.885468 551.683289,136.142746 
	C547.077820,136.142746 542.790222,136.142746 538.000000,136.142746 
	C538.000000,137.718765 538.000000,139.159454 538.000000,141.566391 
z"/>
<path fill="#FFFFFF" opacity="1.000000" stroke="none" 
	d="
M54.000000,191.000000 
	C54.000000,172.006302 54.102974,153.511505 53.904964,135.019928 
	C53.869362,131.695480 55.223400,129.648224 57.642342,128.074509 
	C62.666759,124.805748 67.799934,122.702049 72.946388,127.982201 
	C73.366524,128.413254 74.050774,128.617569 74.646339,128.833252 
	C74.919716,128.932236 75.275566,128.803452 76.100220,128.737473 
	C75.136894,122.879944 76.059273,117.977234 81.408989,113.896782 
	C87.360519,109.357315 91.220055,113.136856 95.905594,116.884521 
	C95.905594,112.409225 95.905594,109.097015 95.905594,105.680817 
	C96.403702,105.418770 96.830536,105.270195 97.166840,105.006264 
	C107.818321,96.646950 116.397484,103.615578 125.267502,108.746132 
	C140.147568,117.352974 155.089371,125.853271 169.954559,134.485580 
	C176.759094,138.436996 183.421494,142.632584 190.200378,146.629181 
	C191.565994,147.434311 193.166428,147.841171 194.861572,148.511963 
	C194.861572,153.254242 194.861572,158.233856 194.861572,163.264038 
	C191.653397,164.806015 188.393173,166.373001 184.641693,168.176102 
	C188.353256,170.194580 191.477081,171.893417 194.876007,173.741867 
	C194.876007,177.962936 194.876007,182.612488 194.876007,187.457520 
	C191.918640,189.049927 188.865860,190.693710 185.096970,192.723068 
	C188.752396,194.921417 191.703629,196.696259 194.881622,198.607483 
	C194.881622,202.937134 194.881622,207.583023 194.881622,211.907333 
	C188.378342,215.605820 182.019577,219.245483 175.636383,222.841827 
	C172.720963,224.484390 169.717514,225.972610 166.822433,227.649048 
	C152.482605,235.952759 138.156906,244.280975 123.846901,252.635971 
	C120.379585,254.660400 116.808640,256.577728 113.617043,258.984222 
	C110.444550,261.376343 107.540642,261.447327 104.158684,259.680328 
	C96.393600,255.623276 96.364441,255.679092 95.763954,244.817307 
	C91.017441,246.099075 87.343895,249.944260 81.149452,246.365646 
	C74.296890,242.406860 76.866196,237.084625 75.726120,231.929062 
	C74.660484,232.337524 73.627258,232.463867 72.971123,233.028458 
	C68.403618,236.958725 64.205963,237.486572 58.853226,233.687973 
	C55.609364,231.385956 53.761070,229.729660 53.886345,225.484894 
	C54.220417,214.165329 54.000000,202.829422 54.000000,191.000000 
M69.395187,140.893906 
	C64.904053,138.749802 67.107307,142.802612 67.102325,143.751007 
	C66.973267,168.376984 66.997940,193.003754 67.012749,217.630402 
	C67.013206,218.387421 67.191483,219.144333 67.288887,219.917435 
	C75.483055,218.380463 75.999954,217.805771 75.999992,210.506348 
	C76.000031,203.517700 76.000000,196.529068 76.000000,189.540421 
	C76.000000,174.440430 76.000000,159.340424 76.000000,144.756271 
	C73.741562,143.300064 71.973679,142.160172 69.395187,140.893906 
M118.440735,119.963058 
	C115.768005,118.653076 113.095276,117.343094 110.354019,115.999527 
	C109.539970,123.993111 109.443329,124.150909 112.661095,126.121620 
	C121.954117,131.813080 131.275742,137.462708 140.694305,142.942841 
	C148.856491,147.691986 157.217361,152.099030 165.394531,156.823242 
	C171.539169,160.373199 173.335190,160.326721 179.963470,155.434265 
	C172.374390,151.203857 164.794312,147.088669 157.320969,142.788025 
	C144.512756,135.417389 131.771255,127.930824 118.440735,119.963058 
M120.003448,230.494003 
	C116.749077,232.531586 113.494713,234.569153 110.460892,236.468643 
	C110.460892,239.337463 110.460892,242.154587 110.460892,245.146652 
	C133.707077,231.690613 156.510925,218.490631 179.600586,205.125183 
	C171.488052,199.457352 173.626663,198.454605 165.959564,203.549225 
	C162.836670,205.624329 159.835266,207.910492 156.585144,209.760834 
	C144.616013,216.574966 132.565887,223.246826 120.003448,230.494003 
M110.164742,195.644089 
	C110.876976,195.477356 111.686623,195.474915 112.286713,195.119064 
	C120.444923,190.281631 128.574097,185.395203 137.574188,180.003403 
	C128.451416,174.933151 119.676796,170.056412 110.010429,164.684052 
	C110.010429,175.838959 110.010429,185.315918 110.164742,195.644089 
M96.000000,160.784058 
	C97.485374,154.351730 91.531319,154.562241 88.225067,151.514862 
	C88.225067,170.771103 88.225067,189.280457 88.225067,207.854691 
	C95.999969,205.596115 95.999992,205.596115 96.000000,198.146286 
	C96.000015,186.006332 96.000000,173.866364 96.000000,160.784058 
M110.001305,142.865875 
	C109.503395,147.117523 110.564911,149.924316 114.962364,152.178375 
	C123.327660,156.466293 131.080261,161.931656 139.249710,166.625397 
	C145.368500,170.140976 151.493500,175.788361 158.390671,168.227707 
	C153.756393,165.400574 148.762665,162.210800 143.633698,159.255722 
	C133.645813,153.501099 123.602142,147.841858 113.516487,142.260742 
	C112.590698,141.748444 111.196198,142.083145 110.001305,142.865875 
M157.413208,193.953018 
	C156.675812,189.491211 150.707581,187.574509 146.206451,190.307053 
	C136.003876,196.500824 125.990204,203.051636 115.481232,208.675232 
	C110.282776,211.457016 109.028404,214.713959 110.498497,220.278992 
	C126.047737,211.434464 141.344879,202.733322 157.413208,193.953018 
M176.018616,182.478470 
	C177.107788,181.698486 178.196945,180.918488 179.475967,180.002533 
	C171.442154,174.865829 169.443771,174.994812 164.296448,180.506195 
	C166.902069,181.979614 169.536972,183.469574 172.082733,184.909134 
	C173.224197,184.244781 174.325211,183.603973 176.018616,182.478470 
M93.688965,230.034439 
	C94.751915,227.216080 95.814865,224.397720 97.158379,220.835480 
	C88.156464,222.442322 87.608658,223.236252 88.351135,232.479538 
	C90.039505,231.766495 91.519623,231.141418 93.688965,230.034439 
M89.390251,136.888519 
	C91.436798,137.975845 93.483345,139.063187 95.726768,140.255127 
	C96.407867,130.807007 96.407867,130.807007 87.679077,128.000946 
	C88.092598,130.943253 88.467278,133.609177 89.390251,136.888519 
z"/>
<path fill="#FFFFFF" opacity="1.000000" stroke="none" 
	d="
M691.000000,212.979889 
	C691.000000,216.788956 691.000000,220.101013 691.000000,223.705688 
	C686.066772,223.705688 681.328552,223.705688 676.000000,223.705688 
	C676.000000,214.543564 676.000000,205.282333 676.000000,196.021088 
	C676.000000,191.356339 675.832214,186.683914 676.044739,182.028870 
	C676.281677,176.837509 674.750427,172.423126 670.045776,170.122772 
	C665.292236,167.798447 660.198914,168.345947 655.597473,170.999542 
	C651.063843,173.614059 648.976013,177.743240 648.988953,182.996735 
	C649.022095,196.470291 649.000000,209.944000 649.000000,223.708298 
	C644.059692,223.708298 639.321533,223.708298 634.289246,223.708298 
	C634.289246,202.057617 634.289246,180.324371 634.289246,157.886292 
	C639.453430,159.175339 645.321960,155.575302 650.334717,160.621460 
	C659.058167,155.251434 673.519348,152.052582 686.187195,165.201752 
	C691.952881,158.891556 699.142761,155.880966 707.750061,155.960663 
	C718.413269,156.059418 726.125610,160.448334 729.953613,170.643631 
	C730.952881,173.305084 731.873596,176.191452 731.909851,178.986465 
	C732.101746,193.791656 732.000000,208.600662 732.000000,223.703751 
	C727.404480,223.703751 722.999268,223.703751 718.000000,223.703751 
	C718.000000,214.549042 718.000000,205.287888 718.000000,196.026733 
	C718.000000,191.028793 718.019409,186.030746 717.995056,181.032928 
	C717.965454,174.959015 714.220947,169.732437 709.420227,169.005783 
	C701.273254,167.772629 694.100098,170.903091 692.133911,176.836304 
	C691.384033,179.099228 691.079041,181.598129 691.048950,183.995468 
	C690.929871,193.489990 691.000000,202.986877 691.000000,212.979889 
z"/>
<path fill="#FFFFFF" opacity="1.000000" stroke="none" 
	d="
M596.834717,236.000000 
	C606.570496,234.552460 608.702820,235.692719 611.593018,218.121918 
	C593.002808,229.885956 576.792786,222.074966 569.662781,212.889832 
	C566.557922,208.890015 564.748291,203.685883 563.134094,198.771332 
	C560.245544,189.976837 561.347412,180.822662 565.874023,173.260635 
	C570.333557,165.810654 576.158813,158.816010 585.953735,156.893661 
	C595.238647,155.071396 603.572937,156.383545 611.624268,162.554504 
	C611.872498,160.749512 612.038635,159.541946 612.227661,158.167542 
	C616.662048,158.167542 621.102356,158.167542 626.000000,158.167542 
	C626.000000,165.103226 626.000000,171.883392 626.000000,178.663544 
	C626.000000,192.659912 626.310547,206.665909 625.876465,220.648804 
	C625.639099,228.294540 624.016968,235.811111 617.409546,241.090179 
	C608.281494,248.383163 597.846802,249.009323 586.875061,247.454147 
	C578.120850,246.213333 571.972595,241.557526 568.297119,233.637283 
	C567.437805,231.785629 567.165283,229.661636 566.443054,227.000549 
	C570.694275,227.000549 574.312683,226.863968 577.909790,227.080643 
	C579.043335,227.148926 580.660645,227.881683 581.135498,228.791153 
	C584.439880,235.120377 589.874512,236.618469 596.834717,236.000000 
M579.924133,202.438919 
	C587.078186,215.367844 602.633606,212.674881 608.134399,204.881882 
	C614.151733,196.357040 614.168152,185.984634 608.794006,176.694565 
	C603.376953,167.330368 589.570007,166.423981 583.037659,173.347275 
	C576.420776,180.360291 574.710510,191.713303 579.924133,202.438919 
z"/>
<path fill="#FFFFFF" opacity="1.000000" stroke="none" 
	d="
M462.209778,167.400757 
	C468.713287,159.400986 476.932526,155.273621 486.766571,156.193314 
	C492.799927,156.757568 498.655945,159.218353 504.713287,160.860504 
	C504.713287,153.470764 504.713287,145.090240 504.713287,136.355545 
	C509.803345,136.355545 514.546448,136.355545 519.647034,136.355545 
	C519.647034,165.142090 519.647034,194.205536 519.647034,223.994186 
	C515.549744,223.994186 511.134888,224.038620 506.723175,223.940308 
	C506.144226,223.927399 505.632812,223.048096 504.999878,222.808090 
	C503.922638,222.399612 502.423950,221.565109 501.706848,221.972824 
	C489.002441,229.196182 475.342285,227.440781 464.681702,217.213654 
	C455.186493,208.104553 453.867493,196.642029 455.925262,184.686874 
	C456.929260,178.853989 459.928558,173.364563 462.209778,167.400757 
M472.393250,203.913605 
	C474.384308,209.141312 478.656921,212.578033 483.519287,213.781754 
	C492.751251,216.067215 500.648743,210.787354 504.157166,201.743027 
	C506.724182,195.125519 506.472534,188.542526 504.821686,182.134598 
	C503.255737,176.055939 499.552032,170.809784 492.842529,169.436493 
	C486.598297,168.158447 480.356293,168.490997 475.686493,173.833420 
	C467.873718,182.771576 468.894653,192.871979 472.393250,203.913605 
z"/>
<path fill="#FFFFFF" opacity="1.000000" stroke="none" 
	d="
M267.598572,136.000641 
	C279.373627,137.610809 286.361298,144.977509 290.571777,154.664612 
	C292.221375,158.459915 290.738281,163.596100 290.768707,168.121033 
	C290.808533,174.040604 286.643311,177.652786 283.623840,182.031311 
	C279.452087,188.080734 273.364349,189.629669 266.888428,189.898987 
	C257.437836,190.292023 247.958725,190.000000 238.094421,190.000000 
	C238.094421,201.365479 238.094421,212.442322 238.094421,223.756485 
	C233.294571,223.756485 228.888977,223.756485 224.239838,223.756485 
	C224.239838,194.619232 224.239838,165.548279 224.239838,136.000061 
	C238.587677,136.000061 252.863846,136.000061 267.598572,136.000641 
M266.820312,176.989380 
	C267.703735,176.606018 268.609711,176.267014 269.466919,175.832031 
	C274.846741,173.102158 277.715210,167.742050 276.998291,161.808807 
	C276.107391,154.435837 272.571472,149.640121 265.902222,149.175934 
	C256.703796,148.535690 247.427444,149.015427 238.282211,149.015427 
	C238.282211,158.659149 238.282211,167.718628 238.282211,176.999359 
	C247.686737,176.999359 256.810791,176.999359 266.820312,176.989380 
z"/>
<path fill="#FFFFFF" opacity="1.000000" stroke="none" 
	d="
M303.230957,224.053009 
	C294.740875,219.573883 289.213806,213.823349 289.880310,203.550842 
	C290.457611,194.653641 297.050323,185.580963 306.020935,184.095642 
	C315.819550,182.473236 325.742249,181.600174 335.582886,180.403870 
	C333.753326,171.600937 330.780121,168.196899 323.500763,168.069534 
	C313.514832,167.894821 309.491913,169.576630 307.332581,176.999268 
	C303.386566,176.999268 299.394226,177.004105 295.401886,176.994415 
	C294.749237,176.992828 294.096710,176.927216 292.920593,176.862305 
	C293.150604,170.111694 296.888153,164.639420 301.476105,161.542145 
	C312.902039,153.828537 331.537354,153.137466 342.839325,162.822113 
	C346.574951,166.023178 349.399170,172.188843 349.680573,177.166351 
	C350.551941,192.578033 349.999054,208.070251 349.999054,223.764679 
	C345.415314,223.764679 341.138824,223.764679 336.410248,223.764679 
	C336.180786,222.721191 335.893372,221.414062 335.427185,219.293930 
	C325.531128,226.939789 314.869507,227.849197 303.230957,224.053009 
M328.311249,210.972183 
	C334.368286,206.054703 335.912994,199.445084 336.008636,192.214508 
	C328.927826,192.844650 322.434296,193.403290 315.944885,194.006760 
	C311.591309,194.411591 307.369385,195.619125 305.228088,199.673340 
	C303.078217,203.743668 304.226135,207.438278 307.401825,211.082352 
	C312.060242,216.427811 321.531830,216.705856 328.311249,210.972183 
z"/>
<path fill="#FFFFFF" opacity="1.000000" stroke="none" 
	d="
M395.329041,176.999054 
	C394.251160,176.140625 392.915131,174.808975 393.121674,174.496323 
	C396.351013,169.607590 397.715057,163.235352 403.412384,160.272141 
	C410.830383,156.413986 418.981903,155.268250 427.110443,156.187393 
	C435.245789,157.107300 442.992371,159.797104 447.173035,167.801544 
	C448.548248,170.434540 449.827484,173.494736 449.875793,176.380920 
	C450.137604,192.025116 450.000000,207.675995 450.000000,223.992142 
	C445.811859,223.992142 441.727478,224.041046 437.647156,223.934875 
	C437.090240,223.920395 436.614929,222.967712 435.994781,222.735840 
	C434.680725,222.244537 432.818695,221.177002 432.013184,221.679413 
	C422.693573,227.491974 412.945953,227.200043 403.032288,223.948364 
	C393.817780,220.926025 388.860718,209.963928 391.641205,199.749664 
	C394.997406,187.420441 403.881561,183.267136 412.760132,182.899246 
	C420.415100,182.582062 428.034027,181.395325 435.674805,180.592377 
	C435.387238,172.138657 433.114502,169.781830 424.458832,168.088135 
	C416.453033,166.521591 409.483795,170.412872 407.663361,176.999878 
	C403.757812,176.999878 399.773132,176.999878 395.329041,176.999054 
M420.066040,214.998947 
	C431.792480,211.925705 437.952209,200.956161 435.340881,192.370148 
	C428.796265,192.917282 422.299408,193.285095 415.852356,194.064377 
	C411.908813,194.541061 407.552032,194.929077 405.890594,199.571289 
	C404.420959,203.677475 404.353821,207.300995 407.443268,211.320084 
	C410.846710,215.747772 415.005951,214.723999 420.066040,214.998947 
z"/>
<path fill="#FFFFFF" opacity="1.000000" stroke="none" 
	d="
M525.030273,169.777832 
	C525.003967,165.670914 525.003967,162.043625 525.003967,158.213547 
	C534.100769,158.213547 542.839600,158.213547 551.978394,158.213547 
	C551.978394,176.109482 551.978394,193.852264 551.978394,211.998047 
	C552.992981,211.998047 553.610046,211.994308 554.227173,211.998611 
	C565.159546,212.074722 565.159546,212.074936 564.929321,223.637100 
	C551.875183,223.637100 538.801758,223.637100 525.363525,223.637100 
	C525.363525,220.201553 525.363525,216.460770 525.363525,212.319778 
	C529.130615,212.319778 533.209534,212.319778 537.989624,212.319778 
	C537.989624,198.418457 537.989624,184.889267 537.989624,171.348251 
	C534.142944,171.023804 529.599731,170.640625 525.030273,169.777832 
z"/>
<path fill="#FFFFFF" opacity="1.000000" stroke="none" 
	d="
M371.601807,223.603027 
	C366.976837,223.942490 362.693359,223.942490 358.209442,223.942490 
	C358.209442,201.919205 358.209442,180.210098 358.209442,157.883453 
	C363.094269,158.827011 368.361847,156.328064 373.046021,159.756821 
	C378.960114,158.618729 385.638763,157.333527 392.783813,155.958557 
	C392.783813,161.752533 392.783813,166.153427 392.783813,171.000000 
	C390.385162,171.000000 388.069885,171.266052 385.835236,170.954254 
	C375.793335,169.553162 372.088898,177.437607 372.025299,184.840439 
	C371.915253,197.647446 371.962158,210.455780 371.601807,223.603027 
z"/>
<path fill="#FFFFFF" opacity="1.000000" stroke="none" 
	d="
M538.000000,141.083252 
	C538.000000,139.159454 538.000000,137.718765 538.000000,136.142746 
	C542.790222,136.142746 547.077820,136.142746 551.683289,136.142746 
	C551.683289,140.885468 551.683289,145.624649 551.683289,150.685867 
	C547.441101,150.685867 543.035522,150.685867 538.000000,150.685867 
	C538.000000,147.761749 538.000000,144.664078 538.000000,141.083252 
z"/>
<path fill="#000000" opacity="1.000000" stroke="none" 
	d="
M69.800491,140.957092 
	C71.973679,142.160172 73.741562,143.300064 76.000000,144.756271 
	C76.000000,159.340424 76.000000,174.440430 76.000000,189.540421 
	C76.000000,196.529068 76.000031,203.517700 75.999992,210.506348 
	C75.999954,217.805771 75.483055,218.380463 67.288887,219.917435 
	C67.191483,219.144333 67.013206,218.387421 67.012749,217.630402 
	C66.997940,193.003754 66.973267,168.376984 67.102325,143.751007 
	C67.107307,142.802612 64.904053,138.749802 69.800491,140.957092 
z"/>
<path fill="#000000" opacity="1.000000" stroke="none" 
	d="
M118.721245,120.227997 
	C131.771255,127.930824 144.512756,135.417389 157.320969,142.788025 
	C164.794312,147.088669 172.374390,151.203857 179.963470,155.434265 
	C173.335190,160.326721 171.539169,160.373199 165.394531,156.823242 
	C157.217361,152.099030 148.856491,147.691986 140.694305,142.942841 
	C131.275742,137.462708 121.954117,131.813080 112.661095,126.121620 
	C109.443329,124.150909 109.539970,123.993111 110.354019,115.999527 
	C113.095276,117.343094 115.768005,118.653076 118.721245,120.227997 
z"/>
<path fill="#000000" opacity="1.000000" stroke="none" 
	d="
M120.274826,230.233093 
	C132.565887,223.246826 144.616013,216.574966 156.585144,209.760834 
	C159.835266,207.910492 162.836670,205.624329 165.959564,203.549225 
	C173.626663,198.454605 171.488052,199.457352 179.600586,205.125183 
	C156.510925,218.490631 133.707077,231.690613 110.460892,245.146652 
	C110.460892,242.154587 110.460892,239.337463 110.460892,236.468643 
	C113.494713,234.569153 116.749077,232.531586 120.274826,230.233093 
z"/>
<path fill="#000000" opacity="1.000000" stroke="none" 
	d="
M110.087585,195.218475 
	C110.010429,185.315918 110.010429,175.838959 110.010429,164.684052 
	C119.676796,170.056412 128.451416,174.933151 137.574188,180.003403 
	C128.574097,185.395203 120.444923,190.281631 112.286713,195.119064 
	C111.686623,195.474915 110.876976,195.477356 110.087585,195.218475 
z"/>
<path fill="#000000" opacity="1.000000" stroke="none" 
	d="
M96.000000,161.255234 
	C96.000000,173.866364 96.000015,186.006332 96.000000,198.146286 
	C95.999992,205.596115 95.999969,205.596115 88.225067,207.854691 
	C88.225067,189.280457 88.225067,170.771103 88.225067,151.514862 
	C91.531319,154.562241 97.485374,154.351730 96.000000,161.255234 
z"/>
<path fill="#000000" opacity="1.000000" stroke="none" 
	d="
M110.010330,142.445221 
	C111.196198,142.083145 112.590698,141.748444 113.516487,142.260742 
	C123.602142,147.841858 133.645813,153.501099 143.633698,159.255722 
	C148.762665,162.210800 153.756393,165.400574 158.390671,168.227707 
	C151.493500,175.788361 145.368500,170.140976 139.249710,166.625397 
	C131.080261,161.931656 123.327660,156.466293 114.962364,152.178375 
	C110.564911,149.924316 109.503395,147.117523 110.010330,142.445221 
z"/>
<path fill="#000000" opacity="1.000000" stroke="none" 
	d="
M157.027618,193.992599 
	C141.344879,202.733322 126.047737,211.434464 110.498497,220.278992 
	C109.028404,214.713959 110.282776,211.457016 115.481232,208.675232 
	C125.990204,203.051636 136.003876,196.500824 146.206451,190.307053 
	C150.707581,187.574509 156.675812,189.491211 157.027618,193.992599 
z"/>
<path fill="#000000" opacity="1.000000" stroke="none" 
	d="
M175.722412,182.720825 
	C174.325211,183.603973 173.224197,184.244781 172.082733,184.909134 
	C169.536972,183.469574 166.902069,181.979614 164.296448,180.506195 
	C169.443771,174.994812 171.442154,174.865829 179.475967,180.002533 
	C178.196945,180.918488 177.107788,181.698486 175.722412,182.720825 
z"/>
<path fill="#000000" opacity="1.000000" stroke="none" 
	d="
M93.344353,230.275391 
	C91.519623,231.141418 90.039505,231.766495 88.351135,232.479538 
	C87.608658,223.236252 88.156464,222.442322 97.158379,220.835480 
	C95.814865,224.397720 94.751915,227.216080 93.344353,230.275391 
z"/>
<path fill="#000000" opacity="1.000000" stroke="none" 
	d="
M89.116104,136.581818 
	C88.467278,133.609177 88.092598,130.943253 87.679077,128.000946 
	C96.407867,130.807007 96.407867,130.807007 95.726768,140.255127 
	C93.483345,139.063187 91.436798,137.975845 89.116104,136.581818 
z"/>
<path fill="#000000" opacity="1.000000" stroke="none" 
	d="
M579.647522,202.167374 
	C574.710510,191.713303 576.420776,180.360291 583.037659,173.347275 
	C589.570007,166.423981 603.376953,167.330368 608.794006,176.694565 
	C614.168152,185.984634 614.151733,196.357040 608.134399,204.881882 
	C602.633606,212.674881 587.078186,215.367844 579.647522,202.167374 
z"/>
<path fill="#000000" opacity="1.000000" stroke="none" 
	d="
M472.206055,203.560349 
	C468.894653,192.871979 467.873718,182.771576 475.686493,173.833420 
	C480.356293,168.490997 486.598297,168.158447 492.842529,169.436493 
	C499.552032,170.809784 503.255737,176.055939 504.821686,182.134598 
	C506.472534,188.542526 506.724182,195.125519 504.157166,201.743027 
	C500.648743,210.787354 492.751251,216.067215 483.519287,213.781754 
	C478.656921,212.578033 474.384308,209.141312 472.206055,203.560349 
z"/>
<path fill="#000000" opacity="1.000000" stroke="none" 
	d="
M266.377594,176.994370 
	C256.810791,176.999359 247.686737,176.999359 238.282211,176.999359 
	C238.282211,167.718628 238.282211,158.659149 238.282211,149.015427 
	C247.427444,149.015427 256.703796,148.535690 265.902222,149.175934 
	C272.571472,149.640121 276.107391,154.435837 276.998291,161.808807 
	C277.715210,167.742050 274.846741,173.102158 269.466919,175.832031 
	C268.609711,176.267014 267.703735,176.606018 266.377594,176.994370 
z"/>
<path fill="#000000" opacity="1.000000" stroke="none" 
	d="
M327.932190,211.007568 
	C321.531830,216.705856 312.060242,216.427811 307.401825,211.082352 
	C304.226135,207.438278 303.078217,203.743668 305.228088,199.673340 
	C307.369385,195.619125 311.591309,194.411591 315.944885,194.006760 
	C322.434296,193.403290 328.927826,192.844650 336.008636,192.214508 
	C335.912994,199.445084 334.368286,206.054703 327.932190,211.007568 
z"/>
<path fill="#000000" opacity="1.000000" stroke="none" 
	d="
M419.628418,214.999451 
	C415.005951,214.723999 410.846710,215.747772 407.443268,211.320084 
	C404.353821,207.300995 404.420959,203.677475 405.890594,199.571289 
	C407.552032,194.929077 411.908813,194.541061 415.852356,194.064377 
	C422.299408,193.285095 428.796265,192.917282 435.340881,192.370148 
	C437.952209,200.956161 431.792480,211.925705 419.628418,214.999451 
z"/>
</svg>